<svg width="32" height="32" viewBox="0 0 32 32" fill="none" xmlns="http://www.w3.org/2000/svg">
<path d="M16 32C24.8366 32 32 24.8366 32 16C32 7.16344 24.8366 0 16 0C7.16344 0 0 7.16344 0 16C0 24.8366 7.16344 32 16 32Z" fill="#EFF1F6"/>
<mask id="mask0" mask-type="alpha" maskUnits="userSpaceOnUse" x="0" y="0" width="32" height="32">
<path d="M16 32C24.8366 32 32 24.8366 32 16C32 7.16344 24.8366 0 16 0C7.16344 0 0 7.16344 0 16C0 24.8366 7.16344 32 16 32Z" fill="#EFF1F6"/>
</mask>
<g mask="url(#mask0)">
<path d="M16 13.978H1.53198V37.31H16V13.978Z" fill="#FFA840"/>
<path d="M6.00499 15.37H2.88599V18.489H6.00499V15.37Z" fill="white"/>
<path d="M10.7279 15.37H7.60895V18.489H10.7279V15.37Z" fill="white"/>
<path d="M15.451 15.37H12.332V18.489H15.451V15.37Z" fill="white"/>
<path d="M6.00499 20.346H2.88599V23.465H6.00499V20.346Z" fill="white"/>
<path d="M10.7279 20.346H7.60895V23.465H10.7279V20.346Z" fill="white"/>
<path d="M15.451 20.346H12.332V23.465H15.451V20.346Z" fill="white"/>
<path d="M6.00499 25.323H2.88599V28.442H6.00499V25.323Z" fill="white"/>
<path d="M10.7279 25.323H7.60895V28.442H10.7279V25.323Z" fill="white"/>
<path d="M15.451 25.323H12.332V28.442H15.451V25.323Z" fill="white"/>
<path d="M6.00499 30.299H2.88599V33.418H6.00499V30.299Z" fill="white"/>
<path d="M10.7279 30.299H7.60895V33.418H10.7279V30.299Z" fill="white"/>
<path d="M15.451 30.299H12.332V33.418H15.451V30.299Z" fill="white"/>
<path d="M15.9999 37.311H30.4679L30.4679 13.979H15.9999L15.9999 37.311Z" fill="#FFA840"/>
<path d="M25.9949 18.488H29.1139V15.369H25.9949V18.488Z" fill="white"/>
<path d="M21.2719 18.488H24.3909V15.369H21.2719V18.488Z" fill="white"/>
<path d="M16.5489 18.488H19.6679V15.369H16.5489V18.488Z" fill="white"/>
<path d="M25.9949 23.465H29.1139V20.346H25.9949V23.465Z" fill="white"/>
<path d="M21.2719 23.465H24.3909V20.346H21.2719V23.465Z" fill="white"/>
<path d="M16.5489 23.465H19.6679V20.346H16.5489V23.465Z" fill="white"/>
<path d="M25.9949 28.442H29.1139V25.323H25.9949V28.442Z" fill="white"/>
<path d="M21.2719 28.442H24.3909V25.323H21.2719V28.442Z" fill="white"/>
<path d="M16.5489 28.442H19.6679V25.323H16.5489V28.442Z" fill="white"/>
<path d="M25.9949 33.418H29.1139V30.299H25.9949V33.418Z" fill="white"/>
<path d="M21.2719 33.418H24.3909V30.299H21.2719V33.418Z" fill="white"/>
<path d="M16.5489 33.418H19.6679V30.299H16.5489V33.418Z" fill="white"/>
<path d="M24.376 6.992H7.62396V32.796H24.376V6.992Z" fill="#2C53B1"/>
<path d="M12.837 9.46399H9.71796V12.583H12.837V9.46399Z" fill="white"/>
<path d="M17.56 9.46399H14.441V12.583H17.56V9.46399Z" fill="white"/>
<path d="M22.282 9.46399H19.163V12.583H22.282V9.46399Z" fill="white"/>
<path d="M12.837 14.441H9.71796V17.56H12.837V14.441Z" fill="white"/>
<path d="M17.56 14.441H14.441V17.56H17.56V14.441Z" fill="white"/>
<path d="M22.282 14.441H19.163V17.56H22.282V14.441Z" fill="white"/>
<path d="M12.837 19.417H9.71796V22.536H12.837V19.417Z" fill="white"/>
<path d="M17.56 19.417H14.441V22.536H17.56V19.417Z" fill="white"/>
<path d="M22.282 19.417H19.163V22.536H22.282V19.417Z" fill="white"/>
<path d="M12.837 24.394H9.71796V27.513H12.837V24.394Z" fill="white"/>
<path d="M17.56 24.394H14.441V27.513H17.56V24.394Z" fill="white"/>
<path d="M22.282 24.394H19.163V27.513H22.282V24.394Z" fill="white"/>
<path d="M21 5H11V7H21V5Z" fill="#FFA840"/>
</g>
</svg>
