<svg width="32" height="32" viewBox="0 0 32 32" fill="none" xmlns="http://www.w3.org/2000/svg">
<path d="M16 32C24.8366 32 32 24.8366 32 16C32 7.16344 24.8366 0 16 0C7.16344 0 0 7.16344 0 16C0 24.8366 7.16344 32 16 32Z" fill="#EFF1F6"/>
<path d="M14.485 10.198C17.394 10.257 20.469 11.228 23.576 15.065L5.75101 14.709C6.66512 13.2397 7.95934 12.0449 9.4968 11.2508C11.0343 10.4567 12.7578 10.093 14.485 10.198V10.198Z" fill="#2C53B1"/>
<path d="M15.524 11.197C17.7756 11.3576 19.872 12.4031 21.355 14.105C21.4234 14.1769 21.4691 14.2674 21.4863 14.3651C21.5036 14.4628 21.4917 14.5634 21.4522 14.6544C21.4126 14.7454 21.3471 14.8228 21.2638 14.8768C21.1805 14.9307 21.0832 14.959 20.984 14.958L15.438 14.848C15.3723 14.8467 15.3076 14.8325 15.2474 14.8061C15.1872 14.7798 15.1329 14.7419 15.0874 14.6945C15.0418 14.6471 15.0061 14.5913 14.9822 14.5301C14.9583 14.469 14.9467 14.4037 14.948 14.338L15.001 11.688C15.0021 11.6211 15.0167 11.5552 15.0438 11.494C15.0709 11.4328 15.1099 11.3777 15.1587 11.332C15.2075 11.2862 15.2649 11.2506 15.3276 11.2275C15.3904 11.2043 15.4572 11.1939 15.524 11.197V11.197Z" fill="#FFA840"/>
<path d="M13.633 11.159C11.3766 11.2295 9.23986 12.1906 7.69003 13.832C7.6188 13.9013 7.56952 13.9899 7.54842 14.0869C7.52733 14.184 7.5353 14.2851 7.57137 14.3776C7.60745 14.4702 7.67003 14.55 7.75124 14.6072C7.83246 14.6644 7.9287 14.6963 8.02798 14.6991L13.574 14.81C13.6397 14.8113 13.705 14.7997 13.7661 14.7758C13.8273 14.7519 13.8831 14.7162 13.9305 14.6707C13.9779 14.6252 14.0158 14.5708 14.0421 14.5106C14.0685 14.4505 14.0827 14.3857 14.084 14.32L14.137 11.67C14.1385 11.6031 14.1265 11.5366 14.1018 11.4744C14.0771 11.4122 14.0401 11.3555 13.9931 11.3079C13.9461 11.2602 13.89 11.2225 13.8281 11.1969C13.7663 11.1713 13.7 11.1585 13.633 11.159Z" fill="#FFA840"/>
<path d="M1.69101 17.585C1.71001 16.63 2.06903 15.762 3.09103 15.612C4.03046 15.4445 4.93607 15.1242 5.772 14.664L22.936 15.007C22.936 15.007 30.403 14.707 30.305 19.607C30.305 19.607 30.237 20.698 29.691 20.687L6.27402 20.219C2.42502 19.533 1.66301 18.824 1.69101 17.585Z" fill="#2C53B1"/>
<path d="M6.26303 19.814L6.298 20.361L29.929 20.833C30.149 20.838 30.303 20.633 30.277 20.333C30.255 20.094 30.249 20.008 30.249 20.008C30.249 20.008 24.613 20.043 17.008 20.028C9.40303 20.013 8.58403 19.768 6.26303 19.814Z" fill="#FFA840"/>
<path d="M25.279 22.606C26.8238 22.606 28.076 21.3538 28.076 19.809C28.076 18.2643 26.8238 17.012 25.279 17.012C23.7343 17.012 22.482 18.2643 22.482 19.809C22.482 21.3538 23.7343 22.606 25.279 22.606Z" fill="#23374D"/>
<path d="M8.90702 22.279C10.4518 22.279 11.704 21.0267 11.704 19.482C11.704 17.9373 10.4518 16.685 8.90702 16.685C7.36228 16.685 6.11002 17.9373 6.11002 19.482C6.11002 21.0267 7.36228 22.279 8.90702 22.279Z" fill="#23374D"/>
<path d="M25.278 21.172C26.0313 21.172 26.642 20.5613 26.642 19.808C26.642 19.0547 26.0313 18.444 25.278 18.444C24.5247 18.444 23.914 19.0547 23.914 19.808C23.914 20.5613 24.5247 21.172 25.278 21.172Z" fill="white"/>
<path d="M8.907 20.846C9.66032 20.846 10.271 20.2353 10.271 19.482C10.271 18.7287 9.66032 18.118 8.907 18.118C8.15368 18.118 7.543 18.7287 7.543 19.482C7.543 20.2353 8.15368 20.846 8.907 20.846Z" fill="white"/>
<path d="M28.7767 17.9759C28.9546 17.7318 28.822 17.3321 28.4805 17.0833C28.139 16.8345 27.718 16.8308 27.5401 17.0749C27.3622 17.3191 27.4948 17.7187 27.8363 17.9675C28.1777 18.2163 28.5988 18.2201 28.7767 17.9759Z" fill="#FFA840"/>
</svg>
