<svg width="32" height="32" viewBox="0 0 32 32" fill="none" xmlns="http://www.w3.org/2000/svg">
<path d="M16 32C24.8366 32 32 24.8366 32 16C32 7.16344 24.8366 0 16 0C7.16344 0 0 7.16344 0 16C0 24.8366 7.16344 32 16 32Z" fill="#EFF1F6"/>
<path d="M9.59799 19.26L12.751 22.4C13.0241 23.3159 13.1298 24.2736 13.063 25.227L12.439 25.852C12.3559 25.9341 12.2438 25.9801 12.127 25.9801C12.0102 25.9801 11.8981 25.9341 11.815 25.852L11.487 25.524L8.987 23.024C7.973 22.009 6.94301 20.994 6.45901 20.494L6.146 20.182C6.06386 20.0987 6.01782 19.9865 6.01782 19.8695C6.01782 19.7525 6.06386 19.6403 6.146 19.557L6.771 18.932C7.72536 18.8715 8.68284 18.9826 9.59799 19.26V19.26Z" fill="#FFA840"/>
<path d="M10.769 7.87401C10.5418 7.87609 10.3246 7.96726 10.1639 8.1279C10.0033 8.28854 9.91209 8.50583 9.91 8.733C9.91183 8.96026 10.0029 9.1777 10.1636 9.33839C10.3243 9.49909 10.5418 9.59018 10.769 9.59201C10.9961 9.58992 11.2133 9.49871 11.3737 9.33804C11.5342 9.17737 11.6252 8.96009 11.627 8.733C11.6252 8.50592 11.5342 8.28865 11.3737 8.12798C11.2133 7.9673 10.9961 7.8761 10.769 7.87401ZM13.422 8.811C13.1949 8.8131 12.9777 8.9043 12.8173 9.06497C12.6568 9.22564 12.5658 9.44291 12.564 9.67C12.5658 9.89708 12.6568 10.1144 12.8173 10.275C12.9777 10.4357 13.1949 10.5269 13.422 10.529C13.6493 10.5272 13.8667 10.4361 14.0274 10.2754C14.1881 10.1147 14.2792 9.89725 14.281 9.67C14.2789 9.44282 14.1877 9.22555 14.0271 9.06491C13.8665 8.90427 13.6492 8.81309 13.422 8.811V8.811ZM23.178 18.417C23.1762 18.1898 23.0851 17.9723 22.9244 17.8116C22.7637 17.6509 22.5463 17.5598 22.319 17.558C22.0919 17.5601 21.8747 17.6513 21.7143 17.812C21.5538 17.9726 21.4628 18.1899 21.461 18.417C21.4628 18.6441 21.5538 18.8614 21.7143 19.022C21.8747 19.1827 22.0919 19.2739 22.319 19.276C22.4319 19.2764 22.5438 19.2545 22.6482 19.2114C22.7526 19.1684 22.8475 19.1051 22.9273 19.0253C23.0072 18.9455 23.0704 18.8506 23.1134 18.7462C23.1565 18.6418 23.1784 18.5299 23.178 18.417V18.417ZM23.256 20.217C23.0289 20.2191 22.8118 20.3103 22.6513 20.471C22.4908 20.6316 22.3998 20.8489 22.398 21.076C22.3998 21.3031 22.4908 21.5204 22.6513 21.681C22.8118 21.8417 23.0289 21.9329 23.256 21.935C23.4832 21.9329 23.7005 21.8417 23.8611 21.6811C24.0218 21.5204 24.1129 21.3032 24.115 21.076C24.1139 20.8481 24.0232 20.6298 23.8625 20.4683C23.7017 20.3068 23.4839 20.2151 23.256 20.213V20.217Z" fill="#23374D"/>
<path d="M17.699 11.217L20.79 14.309C21.133 14.653 24.536 24.165 24.19 24.509L22.956 25.743C22.8754 25.8247 22.7794 25.8895 22.6736 25.9338C22.5678 25.978 22.4542 26.0008 22.3395 26.0008C22.2248 26.0008 22.1112 25.978 22.0054 25.9338C21.8995 25.8895 21.8036 25.8247 21.723 25.743L14.902 17.075L6.255 10.28C6.17334 10.1994 6.1085 10.1034 6.06424 9.99761C6.01998 9.89178 5.99719 9.77821 5.99719 9.66349C5.99719 9.54878 6.01998 9.43522 6.06424 9.32938C6.1085 9.22355 6.17334 9.12755 6.255 9.04699L7.48801 7.813C7.83401 7.468 17.356 10.873 17.699 11.217Z" fill="#2C53B1"/>
<path d="M25.629 6.37501C26.487 7.23401 25.722 9.37501 24.708 10.404L13.542 21.556C12.512 22.587 8.828 24.899 7.97 24.04C7.112 23.181 9.421 19.495 10.452 18.464L21.596 7.29601C22.632 6.26501 24.77 5.51601 25.629 6.37501Z" fill="#2C53B1"/>
<path d="M16.279 18.823L21.711 25.742C21.8633 25.8905 22.0643 25.9787 22.2767 25.9903C22.4891 26.0018 22.6985 25.936 22.866 25.805L16.872 18.23L16.279 18.823ZM13.779 15.137L6.16203 9.17101C6.04647 9.33783 5.99262 9.5397 6.00978 9.74191C6.02693 9.94412 6.11402 10.134 6.25602 10.279L13.186 15.715L13.779 15.137Z" fill="#FFA840"/>
</svg>
