<svg width="33" height="32" viewBox="0 0 33 32" fill="none" xmlns="http://www.w3.org/2000/svg">
<path d="M16.1704 32C25.0069 32 32.1704 24.8366 32.1704 16C32.1704 7.16344 25.0069 0 16.1704 0C7.33382 0 0.17038 7.16344 0.17038 16C0.17038 24.8366 7.33382 32 16.1704 32Z" fill="#EFF1F6"/>
<mask id="mask0" mask-type="alpha" maskUnits="userSpaceOnUse" x="0" y="0" width="33" height="32">
<path d="M16.1704 32C25.0069 32 32.1704 24.8366 32.1704 16C32.1704 7.16344 25.0069 0 16.1704 0C7.33382 0 0.17038 7.16344 0.17038 16C0.17038 24.8366 7.33382 32 16.1704 32Z" fill="#EFF1F6"/>
</mask>
<g mask="url(#mask0)">
<path d="M15.5904 31.99V26.88H13.8904V31.84L15.5904 31.99Z" fill="#23374D"/>
<path d="M5.3504 26.88V27.79C5.0404 27.5 4.73037 27.2 4.44037 26.88H5.3504Z" fill="#929298"/>
<path d="M10.4704 26.88V30.95C9.88796 30.7335 9.3201 30.4797 8.77039 30.19V26.88H10.4704Z" fill="#23374D"/>
<path d="M20.7204 26.88V31.34C20.1594 31.5119 19.5883 31.6488 19.0104 31.75V26.88H20.7204Z" fill="#23374D"/>
<path d="M25.8404 26.88V28.76C25.2961 29.1711 24.7248 29.5453 24.1304 29.88V26.88H25.8404Z" fill="#23374D"/>
<path d="M27.5504 22.61V25.17L25.8404 26.88H4.44037C3.93967 26.3441 3.47846 25.7726 3.06036 25.17C1.96777 23.6191 1.16171 21.885 0.680359 20.05C0.650359 19.91 0.620383 19.78 0.580383 19.64L-0.819641 18.395L-1.53259 16.172L-1.28064 15.081C-1.29064 15.061 -0.829641 14.504 -0.819641 14.494C-0.749641 13.314 0.492378 12.61 0.812378 11.52H11.6524L14.7424 13.21L27.2424 20.05C27.4419 20.8889 27.5452 21.7477 27.5504 22.61V22.61Z" fill="#2C53B1"/>
<path d="M6.64441 19.2H3.20844V14.93H6.64441V19.2Z" fill="white"/>
<path d="M1.63037 14.93V19.199H-1.9986C-2.0186 19.082 -1.81761 19.121 -1.84461 18.999C-1.9352 17.9402 -1.9352 16.8757 -1.84461 15.817C-1.84461 15.525 -1.83763 15.242 -1.81763 14.958C-1.82463 14.941 -1.82463 14.933 -1.81763 14.925L1.63037 14.93Z" fill="white"/>
<path d="M27.2394 20.052H18.5654C17.7716 20.0553 16.9928 19.8363 16.317 19.42C15.6412 19.0036 15.0954 18.4064 14.7414 17.696L11.6514 11.515H16.4514C18.947 11.5199 21.3684 12.3646 23.3254 13.9133C25.2824 15.4619 26.6611 17.6243 27.2394 20.052V20.052Z" fill="#FFA840"/>
<path d="M29.2904 25.17C28.3804 26.4598 27.2891 27.6116 26.0504 28.59H6.30035C5.97035 28.34 5.6604 28.07 5.3504 27.79C5.0404 27.51 4.73037 27.2 4.44037 26.88C3.93967 26.3441 3.47846 25.7726 3.06036 25.17H29.2904Z" fill="#23374D"/>
<path d="M23.1704 24C23.7227 24 24.1704 23.5523 24.1704 23C24.1704 22.4477 23.7227 22 23.1704 22C22.6181 22 22.1704 22.4477 22.1704 23C22.1704 23.5523 22.6181 24 23.1704 24Z" fill="white"/>
</g>
</svg>
