<svg width="43" height="9" viewBox="0 0 43 9" fill="none" xmlns="http://www.w3.org/2000/svg">
<path d="M2.703 2.68201V3.68201H1.92999V5.61501C1.92485 5.6633 1.93033 5.71212 1.94604 5.75807C1.96176 5.80402 1.98735 5.84598 2.021 5.881C2.09405 5.93635 2.18453 5.96368 2.276 5.95801C2.33166 5.9578 2.3872 5.95279 2.442 5.94301C2.50067 5.93301 2.54466 5.924 2.57399 5.916L2.78 6.901C2.71333 6.91967 2.62234 6.94234 2.507 6.96901C2.36742 6.99877 2.22558 7.01684 2.08299 7.02301C1.68611 7.06854 1.28636 6.96638 0.959991 6.73601C0.822236 6.61678 0.714646 6.46665 0.645996 6.2979C0.577346 6.12914 0.549596 5.94653 0.565002 5.765V3.68201H-0.00100708V2.68201H0.565002V1.65601H1.929V2.68201H2.703Z" fill="white"/>
<path d="M3.39801 6.81401V2.68001H4.72299V3.434H4.768C4.82483 3.19421 4.95907 2.97982 5.14999 2.824C5.3272 2.69037 5.54408 2.61996 5.76599 2.62401C5.87526 2.62331 5.98417 2.63675 6.09 2.664C6.18639 2.6885 6.27917 2.72548 6.366 2.774L5.966 3.856C5.90393 3.82826 5.84012 3.80454 5.77499 3.785C5.64003 3.74595 5.49715 3.74315 5.36075 3.77685C5.22435 3.81056 5.09923 3.87959 4.99799 3.977C4.92025 4.0542 4.85933 4.14665 4.81906 4.24853C4.77879 4.35041 4.76006 4.45952 4.76401 4.569V6.81401H3.39801Z" fill="white"/>
<path d="M7.93297 6.886C7.57199 6.90117 7.21627 6.79561 6.92199 6.58599C6.78618 6.47706 6.67885 6.3368 6.60918 6.17726C6.53951 6.01771 6.50959 5.84365 6.52199 5.66999C6.5082 5.4091 6.58523 5.1515 6.73998 4.94101C6.89216 4.75612 7.0931 4.61754 7.32 4.541C7.57647 4.45068 7.8438 4.39486 8.11498 4.375C8.37845 4.36025 8.64013 4.32245 8.89699 4.262C9.05233 4.21734 9.13 4.13199 9.13 4.00599V3.99299C9.13301 3.93166 9.12113 3.87053 9.09536 3.8148C9.06958 3.75907 9.03067 3.71041 8.98198 3.673C8.86494 3.59188 8.72418 3.55211 8.58199 3.55999C8.42888 3.55263 8.27716 3.59205 8.14699 3.673C8.03943 3.74589 7.96446 3.85779 7.93798 3.985L6.67998 3.942C6.70654 3.7555 6.77022 3.57623 6.86727 3.41478C6.96431 3.25332 7.09275 3.11295 7.24499 3.002C7.64057 2.73082 8.11524 2.59923 8.59398 2.628C8.9262 2.62248 9.25663 2.67772 9.56899 2.791C9.83221 2.88402 10.0654 3.0464 10.244 3.261C10.4111 3.47307 10.4985 3.73708 10.491 4.007V6.819H9.208V6.24299H9.17498C9.05076 6.45739 8.86786 6.63183 8.64782 6.74575C8.42777 6.85967 8.17975 6.90833 7.93297 6.886V6.886ZM8.35399 6.024C8.5559 6.02905 8.753 5.96206 8.90999 5.835C8.98404 5.77706 9.04344 5.70253 9.08339 5.61741C9.12335 5.5323 9.14271 5.43898 9.13997 5.345V4.95199C9.03772 4.9999 8.92939 5.03355 8.81798 5.052C8.67932 5.07866 8.54599 5.101 8.41799 5.119C8.01466 5.17833 7.81298 5.34 7.81298 5.604C7.80986 5.66451 7.82207 5.72483 7.84847 5.77937C7.87487 5.83391 7.91459 5.8809 7.96398 5.916C8.07909 5.99287 8.21571 6.03106 8.35399 6.02501V6.024Z" fill="white"/>
<path d="M15.323 2.68201L13.853 6.814H12.291L10.824 2.68201H12.26L13.049 5.528H13.094L13.886 2.68201H15.323Z" fill="white"/>
<path d="M17.708 6.89298C17.4188 6.90914 17.1293 6.8672 16.8565 6.76965C16.5838 6.67209 16.3333 6.52089 16.12 6.32497C15.9215 6.11826 15.7677 5.87291 15.6681 5.60419C15.5685 5.33548 15.5252 5.04913 15.541 4.76298C15.532 4.37284 15.6222 3.9868 15.803 3.64098C15.9725 3.32566 16.229 3.06567 16.542 2.89198C16.887 2.70662 17.2744 2.61427 17.666 2.62399C18.0395 2.61665 18.4092 2.70039 18.743 2.86797C19.0532 3.02818 19.3087 3.27709 19.477 3.58298C19.6634 3.93798 19.7547 4.33521 19.742 4.73598V5.06498H16.886V5.09998C16.8781 5.21316 16.8946 5.32671 16.9345 5.43293C16.9744 5.53915 17.0366 5.63553 17.1171 5.71552C17.1976 5.79551 17.2943 5.85723 17.4007 5.89648C17.5072 5.93573 17.6209 5.95159 17.734 5.94299C17.8961 5.94701 18.0565 5.90948 18.2 5.83398C18.3273 5.76658 18.4255 5.65488 18.476 5.51998L19.728 5.55499C19.6916 5.75263 19.6155 5.94083 19.5043 6.10824C19.3931 6.27564 19.249 6.41878 19.081 6.52898C18.6713 6.78778 18.1921 6.91481 17.708 6.89298V6.89298ZM16.885 4.29897H18.468C18.47 4.20136 18.4513 4.10443 18.413 4.01461C18.3747 3.92479 18.3178 3.84413 18.246 3.77798C18.0937 3.64153 17.8943 3.5698 17.69 3.57798C17.481 3.57109 17.2775 3.64526 17.122 3.78498C17.0494 3.85032 16.991 3.92979 16.9502 4.01852C16.9095 4.10725 16.8873 4.20336 16.885 4.30097V4.29897Z" fill="white"/>
<path d="M21.805 1.254V6.966H20.441V1.254H21.805Z" fill="white"/>
<path d="M22.669 6.966V1.254H24.033V4.216H24.094L25.294 2.682H26.839L25.319 4.548L26.9 6.966H25.324L24.303 5.346L24.027 5.681V6.967L22.669 6.966Z" fill="white"/>
<path d="M30.097 5.032V2.68201H31.458V6.81599H30.1579V6.04601H30.113C30.0221 6.29379 29.8519 6.50467 29.629 6.646C29.3821 6.79935 29.0955 6.87657 28.805 6.868C28.5353 6.87385 28.2689 6.80683 28.034 6.674C27.8141 6.5454 27.6354 6.35668 27.519 6.13C27.3917 5.87747 27.3275 5.5978 27.332 5.315V2.67999H28.696V5.05701C28.687 5.25075 28.7529 5.44053 28.88 5.58701C28.9438 5.65259 29.0209 5.70381 29.1061 5.73726C29.1912 5.77071 29.2826 5.78563 29.374 5.78101C29.4724 5.78516 29.5705 5.76833 29.662 5.73166C29.7534 5.69499 29.836 5.6393 29.9043 5.56828C29.9726 5.49727 30.0249 5.41255 30.058 5.31975C30.091 5.22695 30.104 5.12818 30.0959 5.03L30.097 5.032Z" fill="white"/>
<path d="M33.117 8.48499C32.9569 8.48793 32.797 8.47115 32.641 8.435C32.5334 8.40813 32.4275 8.37473 32.324 8.33499L32.6241 7.297C32.7857 7.35915 32.9595 7.38344 33.132 7.368C33.2032 7.35646 33.2703 7.32661 33.3266 7.28139C33.3828 7.23616 33.4264 7.1771 33.453 7.10999L33.5089 6.96799L31.986 2.52798H33.414L34.203 5.58499H34.248L35.048 2.52798H36.485L34.867 7.23599C34.7501 7.58051 34.5408 7.8863 34.262 8.12C33.937 8.37602 33.5302 8.50568 33.117 8.48499Z" fill="white"/>
<path d="M42.8349 3.04201L41.691 2.66601L42.161 1.28701L42.39 1.36201C42.4502 1.38216 42.5159 1.37783 42.573 1.34995C42.63 1.32208 42.6739 1.2729 42.695 1.21301C42.705 1.18335 42.7089 1.15199 42.7066 1.12077C42.7044 1.08956 42.696 1.05911 42.6819 1.03119C42.6677 1.00327 42.6481 0.978442 42.6242 0.958153C42.6004 0.937865 42.5728 0.92252 42.5429 0.91301L39.7979 0.0130087C39.7376 -0.00709017 39.6718 -0.00261952 39.6147 0.0254523C39.5576 0.053524 39.5139 0.102941 39.493 0.16301C39.483 0.192678 39.479 0.224034 39.4813 0.25525C39.4836 0.286465 39.4921 0.316916 39.5062 0.344834C39.5203 0.372752 39.5399 0.397574 39.5637 0.417863C39.5875 0.438151 39.6152 0.453503 39.645 0.463013L39.874 0.53801L39.404 1.91701L38.26 1.54101C38.1996 1.52091 38.1338 1.52538 38.0768 1.55345C38.0197 1.58152 37.976 1.63094 37.9551 1.69101L36.27 6.63601C36.26 6.66568 36.256 6.69703 36.2583 6.72825C36.2605 6.75946 36.269 6.78992 36.2832 6.81783C36.2973 6.84575 36.3168 6.87057 36.3407 6.89086C36.3645 6.91115 36.3922 6.9265 36.422 6.93601L37.108 7.16201L37.031 7.38701C37.021 7.41668 37.0171 7.44803 37.0194 7.47925C37.0216 7.51046 37.03 7.54091 37.0442 7.56883C37.0583 7.59675 37.0779 7.62157 37.1018 7.64186C37.1256 7.66215 37.1531 7.6775 37.183 7.68701C37.2433 7.70711 37.3092 7.70264 37.3663 7.67457C37.4234 7.6465 37.4671 7.59708 37.488 7.53701L37.565 7.31201L39.852 8.06501L39.775 8.29001C39.765 8.31968 39.761 8.35103 39.7633 8.38225C39.7655 8.41346 39.774 8.44392 39.7882 8.47183C39.8023 8.49975 39.8218 8.52457 39.8457 8.54486C39.8695 8.56515 39.8972 8.5805 39.927 8.59001C39.9873 8.61011 40.0531 8.60564 40.1102 8.57757C40.1673 8.5495 40.2111 8.50008 40.232 8.44001L40.3091 8.21501L40.995 8.44101C41.0553 8.46111 41.1212 8.45664 41.1783 8.42857C41.2354 8.4005 41.2791 8.35108 41.3 8.29101L42.985 3.34601C42.9956 3.31623 43.0002 3.28462 42.9984 3.25305C42.9966 3.22148 42.9883 3.1906 42.9743 3.16225C42.9603 3.13389 42.9408 3.10864 42.9168 3.08798C42.8929 3.06733 42.865 3.05169 42.8349 3.04201V3.04201ZM40.3349 0.685006L41.707 1.13701L41.237 2.51601L39.864 2.06401L40.3349 0.685006Z" fill="white"/>
<path d="M35.878 1.962C36.2685 1.962 36.585 1.64547 36.585 1.255C36.585 0.864539 36.2685 0.548004 35.878 0.548004C35.4875 0.548004 35.171 0.864539 35.171 1.255C35.171 1.64547 35.4875 1.962 35.878 1.962Z" fill="white"/>
</svg>
