<svg width="102" height="22" viewBox="0 0 102 22" fill="none" xmlns="http://www.w3.org/2000/svg">
<path d="M7.285 7.23801V9.57301H5.485V14.068C5.47293 14.1803 5.48556 14.2939 5.522 14.4009C5.55845 14.5078 5.61784 14.6054 5.696 14.687C5.86607 14.8152 6.07642 14.8784 6.289 14.865C6.41846 14.8641 6.54761 14.8521 6.675 14.829C6.80834 14.805 6.911 14.7843 6.983 14.767L7.463 17.057C7.31166 17.1003 7.09966 17.1533 6.827 17.216C6.5024 17.2853 6.1726 17.3275 5.841 17.342C4.91816 17.4476 3.98873 17.2098 3.23 16.674C2.9099 16.3968 2.65989 16.0478 2.50035 15.6556C2.34081 15.2634 2.27627 14.8389 2.312 14.417V9.57301H0.994995V7.23801H2.31599V4.85101H5.48799V7.23801H7.285Z" fill="#2C53B1"/>
<path d="M8.905 16.848V7.23401H11.986V8.98702H12.086C12.2185 8.42952 12.5309 7.93118 12.975 7.56902C13.3871 7.25787 13.8917 7.0938 14.408 7.10301C14.6617 7.10185 14.9144 7.13344 15.16 7.19701C15.3843 7.25435 15.6001 7.34075 15.802 7.45401L14.868 9.97002C14.7237 9.90521 14.5754 9.84976 14.424 9.80402C14.1101 9.71436 13.7781 9.70854 13.4612 9.78714C13.1444 9.86575 12.8536 10.026 12.618 10.252C12.437 10.4315 12.2952 10.6465 12.2014 10.8835C12.1077 11.1205 12.0639 11.3743 12.073 11.629V16.849L8.905 16.848Z" fill="#2C53B1"/>
<path d="M19.448 17.016C18.6083 17.0505 17.781 16.8042 17.097 16.316C16.7823 16.0623 16.5339 15.736 16.373 15.3652C16.212 14.9944 16.1434 14.5901 16.173 14.187C16.1409 13.5808 16.3197 12.9823 16.679 12.493C17.0326 12.062 17.4999 11.7388 18.028 11.56C18.6245 11.3503 19.2463 11.2209 19.877 11.175C20.4898 11.1407 21.0985 11.0527 21.696 10.912C22.0566 10.8074 22.2373 10.6073 22.238 10.312V10.281C22.2452 10.1383 22.2177 9.99588 22.1578 9.86612C22.0979 9.73635 22.0074 9.62307 21.894 9.53601C21.6224 9.34781 21.2959 9.25528 20.966 9.27301C20.6098 9.25582 20.2568 9.34755 19.954 9.53601C19.703 9.70536 19.5285 9.96639 19.468 10.263L16.543 10.163C16.6048 9.72931 16.7529 9.3124 16.9786 8.93693C17.2043 8.56146 17.503 8.23505 17.857 7.977C18.7764 7.34617 19.8799 7.03971 20.993 7.10602C21.7654 7.0932 22.5337 7.22164 23.26 7.48501C23.8722 7.70131 24.4146 8.07894 24.83 8.57802C25.2185 9.07132 25.4217 9.68532 25.404 10.313V16.852H22.42V15.512H22.342C22.0539 16.0132 21.6281 16.4212 21.1152 16.6878C20.6023 16.9543 20.0237 17.0682 19.448 17.016V17.016ZM20.427 15.016C20.8967 15.0285 21.3555 14.8732 21.721 14.578C21.893 14.443 22.031 14.2695 22.1239 14.0716C22.2168 13.8736 22.2621 13.6566 22.256 13.438V12.524C22.0181 12.6352 21.7661 12.7133 21.507 12.756C21.185 12.8187 20.877 12.871 20.583 12.913C19.645 13.051 19.1756 13.4267 19.175 14.04C19.1676 14.1807 19.1958 14.321 19.257 14.4478C19.3181 14.5747 19.4103 14.6842 19.525 14.766C19.7919 14.941 20.1072 15.0271 20.426 15.012L20.427 15.016Z" fill="#2C53B1"/>
<path d="M36.635 7.23801L33.217 16.848H29.585L26.173 7.23801H29.513L31.349 13.857H31.449L33.291 7.23801H36.635Z" fill="#2C53B1"/>
<path d="M42.1809 17.035C41.5081 17.0726 40.8346 16.975 40.2002 16.7479C39.5657 16.5208 38.9832 16.169 38.487 15.713C38.0254 15.2321 37.6677 14.6615 37.4362 14.0365C37.2046 13.4115 37.1042 12.7455 37.141 12.08C37.1204 11.1728 37.3302 10.2751 37.7509 9.47101C38.1454 8.73803 38.742 8.13375 39.4699 7.73001C40.2725 7.29909 41.1733 7.08439 42.084 7.10701C42.9509 7.0905 43.8089 7.28509 44.584 7.67401C45.3051 8.04672 45.899 8.62563 46.2899 9.33701C46.7233 10.1625 46.9355 11.0861 46.906 12.018V12.782H40.268V12.863C40.2497 13.1261 40.2883 13.3901 40.3811 13.637C40.474 13.8839 40.6188 14.1079 40.8059 14.2939C40.993 14.4798 41.2179 14.6233 41.4653 14.7146C41.7128 14.8059 41.977 14.8429 42.24 14.823C42.6167 14.8321 42.9895 14.7446 43.323 14.569C43.619 14.4123 43.8474 14.1527 43.9649 13.839L46.877 13.92C46.7927 14.3791 46.6163 14.8163 46.3586 15.2054C46.1008 15.5945 45.7669 15.9274 45.377 16.184C44.4239 16.7881 43.3083 17.0851 42.1809 17.035V17.035ZM40.268 11.003H43.959C43.9639 10.7759 43.9204 10.5504 43.8315 10.3414C43.7425 10.1325 43.6101 9.94484 43.443 9.79102C43.0898 9.47062 42.6255 9.30088 42.149 9.31801C41.6633 9.30243 41.1903 9.47513 40.829 9.80002C40.658 9.95158 40.5199 10.1367 40.4234 10.3438C40.3269 10.5509 40.274 10.7756 40.268 11.004V11.003Z" fill="#2C53B1"/>
<path d="M51.709 3.91701V17.201H48.537V3.91701H51.709Z" fill="#2C53B1"/>
<path d="M53.72 17.201V3.91701H56.892V10.805H57.035L59.835 7.23801H63.429L59.894 11.577L63.572 17.201H59.907L57.533 13.432L56.891 14.21V17.2L53.72 17.201Z" fill="#2C53B1"/>
<path d="M70.999 12.702V7.23801H74.1639V16.852H71.141V15.062H71.041C70.8299 15.6395 70.4346 16.1315 69.916 16.462C69.3416 16.8186 68.6748 16.9981 67.999 16.978C67.3716 16.9921 66.752 16.8362 66.2059 16.527C65.6937 16.2286 65.2774 15.7901 65.006 15.263C64.7091 14.6743 64.5598 14.0222 64.5709 13.363V7.235H67.743V12.762C67.722 13.2127 67.8752 13.6542 68.171 13.995C68.3195 14.1472 68.4986 14.2662 68.6965 14.3439C68.8944 14.4217 69.1066 14.4565 69.319 14.446C69.5479 14.4558 69.7763 14.4169 69.989 14.3317C70.2017 14.2465 70.394 14.1171 70.5528 13.952C70.7117 13.7868 70.8336 13.5898 70.9105 13.374C70.9874 13.1581 71.0177 12.9284 70.999 12.7V12.702Z" fill="#2C53B1"/>
<path d="M78.011 20.733C77.6389 20.7396 77.2675 20.7003 76.905 20.616C76.6553 20.5553 76.4096 20.4795 76.1691 20.389L76.869 17.976C77.2449 18.1204 77.6489 18.1768 78.05 18.141C78.2157 18.1141 78.3714 18.0446 78.5022 17.9395C78.6329 17.8343 78.7342 17.697 78.796 17.541L78.926 17.21L75.385 6.884H78.706L80.542 13.993H80.642L82.503 6.884H85.844L82.082 17.833C81.8099 18.6344 81.3229 19.3456 80.6741 19.889C79.9175 20.4829 78.9715 20.7827 78.011 20.733V20.733Z" fill="#2C53B1"/>
<path d="M100.617 8.081L97.957 7.206L99.0501 4L99.582 4.175C99.7224 4.22194 99.8756 4.21174 100.008 4.14661C100.141 4.08149 100.243 3.96667 100.292 3.827C100.316 3.75783 100.325 3.68467 100.32 3.61179C100.315 3.53892 100.295 3.46779 100.262 3.4026C100.229 3.33741 100.183 3.27946 100.128 3.23213C100.072 3.1848 100.008 3.14906 99.938 3.127L93.5551 1.027C93.4147 0.980061 93.2615 0.990262 93.1287 1.05539C92.9958 1.12051 92.8939 1.23533 92.845 1.375C92.8215 1.44417 92.812 1.51733 92.8172 1.59021C92.8223 1.66308 92.8419 1.7342 92.8749 1.79939C92.9079 1.86458 92.9535 1.92254 93.0092 1.96987C93.0648 2.01719 93.1293 2.05294 93.199 2.075L93.731 2.25L92.6391 5.456L89.979 4.581C89.8387 4.53433 89.6857 4.54466 89.5529 4.60975C89.4201 4.67484 89.3181 4.78949 89.2691 4.929L85.35 16.429C85.3265 16.4982 85.317 16.5713 85.3222 16.6442C85.3273 16.7171 85.3469 16.7882 85.3799 16.8534C85.4129 16.9186 85.4585 16.9765 85.5142 17.0239C85.5698 17.0712 85.6344 17.1069 85.704 17.129L87.304 17.654L87.126 18.177C87.1025 18.2462 87.093 18.3193 87.0982 18.3922C87.1033 18.4651 87.1229 18.5362 87.1559 18.6014C87.1889 18.6666 87.2345 18.7245 87.2902 18.7719C87.3458 18.8192 87.4104 18.8549 87.48 18.877C87.6203 18.9239 87.7735 18.9137 87.9064 18.8486C88.0393 18.7835 88.1412 18.6687 88.1901 18.529L88.3681 18.006L93.688 19.756L93.51 20.279C93.4865 20.3482 93.4771 20.4213 93.4822 20.4942C93.4873 20.5671 93.507 20.6382 93.5399 20.7034C93.5729 20.7686 93.6186 20.8265 93.6742 20.8739C93.7299 20.9212 93.7944 20.9569 93.864 20.979C94.0044 21.0259 94.1575 21.0157 94.2904 20.9506C94.4233 20.8855 94.5251 20.7707 94.574 20.631L94.752 20.108L96.3521 20.633C96.4924 20.6797 96.6454 20.6693 96.7782 20.6043C96.911 20.5392 97.0129 20.4245 97.062 20.285L100.981 8.785C101.005 8.71494 101.015 8.64076 101.009 8.56693C101.004 8.4931 100.983 8.42113 100.949 8.35537C100.915 8.2896 100.868 8.23139 100.811 8.18424C100.754 8.13709 100.688 8.10197 100.617 8.081V8.081ZM94.7941 2.6L97.986 3.65L96.8941 6.856L93.702 5.806L94.7941 2.6Z" fill="#FFA840"/>
<path d="M84.435 5.56C85.3424 5.56 86.078 4.82441 86.078 3.917C86.078 3.0096 85.3424 2.274 84.435 2.274C83.5276 2.274 82.792 3.0096 82.792 3.917C82.792 4.82441 83.5276 5.56 84.435 5.56Z" fill="#FFA840"/>
</svg>
